<svg xmlns="http://www.w3.org/2000/svg" width="169" height="56" viewBox="0 0 169 56">
  <metadata><?xpacket begin="﻿" id="W5M0MpCehiHzreSzNTczkc9d"?>
<x:xmpmeta xmlns:x="adobe:ns:meta/" x:xmptk="Adobe XMP Core 5.6-c138 79.159824, 2016/09/14-01:09:01        ">
   <rdf:RDF xmlns:rdf="http://www.w3.org/1999/02/22-rdf-syntax-ns#">
      <rdf:Description rdf:about=""/>
   </rdf:RDF>
</x:xmpmeta>
                                                                                                    
                                                                                                    
                                                                                                    
                                                                                                    
                                                                                                    
                                                                                                    
                                                                                                    
                                                                                                    
                                                                                                    
                                                                                                    
                                                                                                    
                                                                                                    
                                                                                                    
                                                                                                    
                                                                                                    
                                                                                                    
                                                                                                    
                                                                                                    
                                                                                                    
                                                                                                    
                           
<?xpacket end="w"?></metadata>
<defs>
    <style>
      .cls-1 {
        fill: #fff;
        fill-rule: evenodd;
      }
    </style>
  </defs>
  <path class="cls-1" d="M114.441,39h14V33.254h-14V28.269h15.322V22.326H107V50.8h23.163V44.422H114.441V39Zm36.525,0.878h-0.08l-9.921-17.55h-7.641V50.8h7V33.055h0.08L150.326,50.8h7.64V22.326h-7v17.55Zm57.422,6.3c0-5.265-3.079-8.415-8.76-8.415h-8.967L187.106,47.5V66.24h3.8V54.593h8.721C205.309,54.633,208.388,51.443,208.388,46.178ZM198.348,51.4h-7.441V40.954h7.441c4.28,0,6.24,1.834,6.24,5.224S202.628,51.443,198.348,51.4Zm17.922-13.64L205.108,66.24h3.92l3.2-8.575H224.31l3.121,8.575h4.2L220.47,37.763h-4.2Zm-2.841,16.712,4.84-13.283h0.081l4.761,13.283h-9.682Zm21.162,11.765h3.8V37.762h-3.8V66.239Zm29.323-5.383h-0.079L248.793,37.762h-4.042V66.24h3.6V43.386h0.079L263.354,66.24h4.161V37.762h-3.6V60.857ZM195.223,16.993h-4.944l-4.061,11.124c-2.3-3.714-6.407-5.791-11.889-5.791H162.047V50.8h12.282a18.948,18.948,0,0,0,3.741-.367l-8.232,22.549L171.166,73h3.678l20.438-55.984ZM173.009,44.421h-3.521V28.708h3.521c5.08,0,7.88,2.513,7.88,7.7C180.889,42.109,178.649,44.3,173.009,44.421Zm102.012-6.659-0.886,2.457-0.88-2.457h-0.984V41.2H272.9v-2.77l0.961,2.77h0.552l0.952-2.77V41.2H276V37.763h-0.978Zm-6.27.573h1.126V41.2h0.684v-2.86h1.126V37.763h-2.936v0.573Z" transform="translate(-107 -17)"/>
</svg>
