<svg id="Logo_" data-name="Logo " xmlns="http://www.w3.org/2000/svg" width="113.344" height="37" viewBox="0 0 113.344 37">
  <defs>
    <style>
      .cls-1 {
        fill: #258a9f;
      }

      .cls-1, .cls-2 {
        fill-rule: evenodd;
      }

      .cls-2 {
        fill: #736868;
      }
    </style>
  </defs>
  <g id="Color_Logo" data-name="Color Logo">
    <path id="Shape_1_copy" data-name="Shape 1 copy" class="cls-1" d="M17.977,3484.55H27.37v-3.8H17.977v-3.29H28.255v-3.93H12.986v18.82H28.525v-4.22H17.977v-3.58Zm24.5,0.58H42.425l-6.655-11.6H30.644v18.82h4.7v-11.73h0.054l6.655,11.73h5.125v-18.82h-4.7v11.6Zm29.687-15.12H68.85l-2.724,7.35c-1.546-2.46-4.3-3.83-7.975-3.83H49.912v18.82H58.15a13.269,13.269,0,0,0,2.509-.24L55.137,3507l0.891,0.01H58.5l13.709-36.99Zm-14.9,18.12H54.9v-10.38h2.362c3.408,0,5.286,1.66,5.286,5.08C62.551,3486.6,61.048,3488.05,57.265,3488.13Z" transform="translate(-13 -3470)"/>
    <path id="Shape_1_copy_2" data-name="Shape 1 copy 2" class="cls-2" d="M81,3484.29c0-3.48-2.066-5.56-5.876-5.56H69.106l-2.385,6.44v12.38H69.27v-7.7h5.85C78.931,3489.88,81,3487.77,81,3484.29Zm-6.735,3.45H69.27v-6.9h4.992c2.871,0,4.185,1.21,4.185,3.45S77.133,3487.77,74.262,3487.74Zm12.022-9.01L78.8,3497.55h2.63l2.147-5.67h8.1l2.094,5.67h2.817L89.1,3478.73H86.284Zm-1.905,11.04,3.247-8.77h0.054l3.194,8.77H84.378Zm14.2,7.78h2.55v-18.82h-2.55v18.82Zm19.67-3.56h-0.053l-10.09-15.26h-2.712v18.82h2.416v-15.1h0.053l10.01,15.1h2.791v-18.82h-2.415v15.26Zm7.45-15.26-0.594,1.63-0.59-1.63h-0.661V3481h0.424v-1.83l0.645,1.83h0.37l0.639-1.83V3481h0.423v-2.27h-0.656Zm-4.2.38h0.755V3481H122.7v-1.89h0.755v-0.38h-1.968v0.38Z" transform="translate(-13 -3470)"/>
  </g>
</svg>
